<?xml version="1.0" encoding="utf-8"?>
<!-- Generator: Adobe Illustrator 19.1.0, SVG Export Plug-In . SVG Version: 6.00 Build 0)  -->
<svg version="1.1" xmlns="http://www.w3.org/2000/svg" xmlns:xlink="http://www.w3.org/1999/xlink" x="0px" y="0px"
	 viewBox="0 0 1158.6 132" style="enable-background:new 0 0 1158.6 132;" xml:space="preserve">
<style type="text/css">
	.st0{display:none;}
	.st1{display:inline;opacity:0.3;fill:#27AAE1;}
	.st2{display:inline;}
	.st3{fill:none;stroke:#27AAE1;stroke-miterlimit:10;}
	.st4{fill:none;stroke:#27AAE1;stroke-miterlimit:10;stroke-dasharray:5.9623,5.9623;}
	.st5{fill:none;stroke:#27AAE1;stroke-miterlimit:10;stroke-dasharray:6.0349,6.0349;}
	.st6{fill:none;stroke:#27AAE1;stroke-miterlimit:10;stroke-dasharray:6.0589,6.0589;}
	.st7{fill:none;stroke:#27AAE1;stroke-miterlimit:10;stroke-dasharray:6.2269,6.2269;}
	.st8{fill:#4D525A;}
	.st9{fill:#E82C2E;}
	.st10{fill:#FFFFFF;}
	.st11{fill:#363545;}
	.st12{opacity:0.2588;fill:#FFFFFF;}
	.st13{fill:#E62C2E;}
</style>
<g id="Layer_1">
	<g>
		<g>
			<polygon class="st9" points="112.8,107.9 28.2,132 11.7,80.3 0,10.4 80.3,0 121.6,32.4 			"/>
			<g>
				<polygon class="st10" points="13.5,28.1 63.8,20.7 81.9,39.5 111.5,34.2 78.2,8 8.9,17.1 				"/>
				<polygon class="st10" points="25.1,85.1 29.7,98.4 55.4,92 49.1,79.6 				"/>
				<polygon class="st10" points="64.5,41 16.9,49.4 21.6,61.9 47.2,56.9 53.8,68.4 81.6,62.4 				"/>
			</g>
		</g>
		<g>
			<path class="st10" d="M190.4,48.6c-7.2-4.2-14.7-6.5-20.9-6.5c-6,0-8.9,2.6-8.9,6.3c0,4.1,2.2,6.1,12.2,9.9
				c17.5,6.4,24.3,12.5,24.3,25.3c0,17.5-12.8,25.2-28.6,25.2c-10.4,0-19.2-2.2-27.1-5.7l2.1-17.4c8.2,4.4,17.4,7.5,25.4,7.5
				c5.7,0,9.6-2.4,9.6-7.2c0-4.5-2.3-6.6-13.6-11c-16-6.2-23-11.4-23-24.7c0-15.5,12.1-23.8,27.4-23.8c9.9,0,16.5,1.8,23.1,4.9
				L190.4,48.6z"/>
			<path class="st10" d="M309.5,102.6c-6.1,4-13.7,6.4-22.6,6.4c-17,0-29.2-9.2-29.2-29.5c0-18.7,11.4-30,26.8-30
				c17.5,0,25.2,13.1,25.2,29.6c0,1.7-0.1,3.6-0.2,4.5h-34.3c0.9,9.1,6.3,12.5,14,12.5c6.2,0,12.2-2.3,18.3-5.9L309.5,102.6z
				 M275,74.1h18c-0.6-8.6-3.6-13.1-8.9-13.1C279.1,61,275.6,65.3,275,74.1z"/>
			<path class="st10" d="M351.7,107.5c-2.8,0.8-5.4,1.2-10.1,1.2c-12.2,0-20.6-4.4-20.6-19V65.1h-6.3l-2.4-14.3h8.7V32.3l17.4-5
				v23.4H349l2.4,14.3h-13v21.8c0,4.5,2.3,6.8,7,6.8c1.4,0,2.8-0.2,4-0.5L351.7,107.5z"/>
			<path class="st10" d="M398.4,69.2c-4.4-2.9-8.2-4.2-12.9-4.2c-7.1,0-12.2,4.8-12.2,14.3c0,9.8,5.7,14.5,12.9,14.5
				c4.1,0,7.8-1.1,12.6-4.1l2.4,14.2c-5.7,3.5-11.2,5.1-18.1,5.1c-16.2,0-27.4-10.7-27.4-29.2c0-20.2,12.6-30,28.1-30
				c6.5,0,11.8,1.5,16.4,4L398.4,69.2z"/>
			<path class="st10" d="M442.5,107.9V72.1c0-4.1-1.6-6.9-5.8-6.9c-3.4,0-6.5,2-9.6,5.1v37.6h-17.5V32.4l17.5-5v30.5
				c4.8-4.7,10-8.3,16.9-8.3c10.5,0,16.1,6.5,16.1,17.7v40.6H442.5z"/>
			<path class="st10" d="M504.3,109.2c-19.6,0-33.3-10.6-33.3-33.1V27.4l19.9,0v48.5c0,10.4,4.6,16.4,13.6,16.4
				c9,0,13.6-5.9,13.6-16.2V27.4H538v48.5C538,98.3,523.6,109.2,504.3,109.2z"/>
			<path class="st10" d="M578,108.5c-5.1,0-8.7-0.9-11.9-2v19.7l-17.5,5V50.7h15.3l1.2,7.5c3.9-4.3,9-8.6,16.3-8.6
				c11.7,0,20.5,8.9,20.5,28.2C602,99.5,590.5,108.5,578,108.5z M575.8,65.3c-3.8,0-6.7,2.3-9.7,5.8v21.7c2.4,1.2,4.5,1.7,8,1.7
				c5.9,0,10.3-4.5,10.3-15.6C584.4,69.4,580.8,65.3,575.8,65.3z"/>
			<g>
				<polygon class="st10" points="239.1,76.7 257,50.7 238.1,50.7 223,74.2 223,27.4 205.4,32.4 205.4,107.9 223,107.9 223,81.3 
					240.7,111 257.6,106.1 				"/>
			</g>
		</g>
	</g>
	<g>
		<path class="st10" d="M674.6,109.8c-22.1,0-36.9-17-36.9-42.1c0-25,15.1-42.4,37.5-42.4c9.2,0,16.8,2.7,22.9,7l-1.3,8.3
			c-6.4-4.7-13.5-7.9-21.7-7.9c-17.9,0-29,14.2-29,34.8c0,20.9,11.2,34.9,28.9,34.9c8.7,0,16.6-3.4,23.2-8.5l1.2,7.8
			C693.3,106.2,684.3,109.8,674.6,109.8z"/>
		<path class="st10" d="M729.4,109.4c-14.3,0-25-10.6-25-29c0-18.5,11-29.1,25-29.1c14.5,0,25.4,10.6,25.4,29.1
			C754.8,98.8,743.7,109.4,729.4,109.4z M729.4,57.9c-10.4,0-17.1,8.5-17.1,22.5c0,13.6,7,22.4,17.1,22.4c10.5,0,17.3-8.5,17.3-22.4
			C746.7,66.7,739.9,57.9,729.4,57.9z"/>
		<path class="st10" d="M834.8,108.2V69.8c0-7.2-3-11.6-10.1-11.6c-5.8,0-11.6,3.5-17.7,9.6v40.5h-7.7V69.8c0-7.2-3-11.6-10.1-11.6
			c-5.8,0-11.7,3.5-17.7,9.4v40.6h-7.8V52.4h6l1.3,8c6-5.3,12.3-9.2,19.7-9.2c8.6,0,13.3,3.5,15.3,9.7c6.1-5.5,12.6-9.7,20.3-9.7
			c11.1,0,16.3,6.4,16.3,17v40H834.8z"/>
		<path class="st10" d="M925.5,108.2V69.8c0-7.2-3-11.6-10.1-11.6c-5.8,0-11.6,3.5-17.7,9.6v40.5H890V69.8c0-7.2-3-11.6-10.1-11.6
			c-5.8,0-11.7,3.5-17.7,9.4v40.6h-7.8V52.4h6l1.3,8c6-5.3,12.3-9.2,19.7-9.2c8.6,0,13.3,3.5,15.3,9.7c6.1-5.5,12.6-9.7,20.3-9.7
			c11.1,0,16.3,6.4,16.3,17v40H925.5z"/>
		<path class="st10" d="M982.6,108.2l-1.3-8.3c-6.1,5.4-12.5,9.4-20.1,9.4c-11.2,0-16.6-6.5-16.6-17.1V52.4h7.8v38.5
			c0,7.2,3.3,11.4,10.4,11.4c5.9,0,11.9-3.5,18.1-9.6V52.4h7.8v55.8H982.6z"/>
		<path class="st10" d="M1037.1,108.2V69.8c0-7.2-3.3-11.6-10.4-11.6c-5.9,0-11.9,3.7-18.1,9.7v40.4h-7.8V52.4h6l1.3,8.3
			c6.1-5.4,12.5-9.4,20.1-9.4c11.1,0,16.6,6.4,16.6,17.1v39.9H1037.1z"/>
		<path class="st10" d="M1061.4,39.1c-3.1,0-5.7-2.6-5.7-5.7s2.6-5.7,5.7-5.7c3.1,0,5.5,2.6,5.5,5.7S1064.5,39.1,1061.4,39.1z
			 M1057.5,108.2V52.4h7.7v55.8H1057.5z"/>
		<path class="st10" d="M1095.6,109.2c-8.7,0-14.5-3.4-14.5-13.7V59h-8.6v-6.6h8.6V33.1l7.7-1.3v20.6h12.9l1.1,6.6h-13.9v35.2
			c0,5.7,2.2,8.1,8.3,8.1c1.8,0,3.9-0.4,5.2-0.6l1.2,6.5C1101.8,108.7,1099,109.2,1095.6,109.2z"/>
		<path class="st10" d="M1130.7,115.6c-3.9,10.7-9,13.9-16.8,13.9c-1.5,0-2.6-0.2-3.4-0.4l-1.2-7c1.3,0.2,2.8,0.5,4.5,0.5
			c4.8,0,7.7-2.1,9.9-8.3l2.4-5.8L1105,53.1l7.7-1.4l17.2,47.4l16.4-46.7h8.1L1130.7,115.6z"/>
	</g>
</g>
<g id="Layer_2" class="st0">
</g>
</svg>
