<?xml version="1.0" encoding="utf-8"?>
<!-- Generator: Adobe Illustrator 19.1.0, SVG Export Plug-In . SVG Version: 6.00 Build 0)  -->
<svg version="1.1" xmlns="http://www.w3.org/2000/svg" xmlns:xlink="http://www.w3.org/1999/xlink" x="0px" y="0px"
	 viewBox="0 0 1009.9 132" style="enable-background:new 0 0 1009.9 132;" xml:space="preserve">
<style type="text/css">
	.st0{display:none;}
	.st1{display:inline;opacity:0.3;fill:#27AAE1;}
	.st2{display:inline;}
	.st3{fill:none;stroke:#27AAE1;stroke-miterlimit:10;}
	.st4{fill:none;stroke:#27AAE1;stroke-miterlimit:10;stroke-dasharray:5.9623,5.9623;}
	.st5{fill:none;stroke:#27AAE1;stroke-miterlimit:10;stroke-dasharray:6.0349,6.0349;}
	.st6{fill:none;stroke:#27AAE1;stroke-miterlimit:10;stroke-dasharray:6.0589,6.0589;}
	.st7{fill:none;stroke:#27AAE1;stroke-miterlimit:10;stroke-dasharray:6.2269,6.2269;}
	.st8{fill:#4D525A;}
	.st9{fill:#E82C2E;}
	.st10{fill:#FFFFFF;}
	.st11{fill:#363545;}
	.st12{display:none;fill:#4D525A;}
	.st13{font-family:'Whitney-Book';}
	.st14{font-size:118px;}
	.st15{letter-spacing:-5;}
</style>
<g id="Layer_1">
	<g class="st0">
		<rect x="602" y="-52.5" class="st1" width="40.2" height="40.2"/>
		<g class="st2">
			<g>
				<line class="st3" x1="-79.7" y1="27.4" x2="-76.7" y2="27.4"/>
				<line class="st4" x1="-70.8" y1="27.4" x2="772.9" y2="27.4"/>
				<line class="st3" x1="775.9" y1="27.4" x2="778.9" y2="27.4"/>
			</g>
		</g>
		<g class="st2">
			<g>
				<line class="st3" x1="119.9" y1="32.3" x2="122.9" y2="32.3"/>
				<line class="st5" x1="129" y1="32.3" x2="403.6" y2="32.3"/>
				<line class="st3" x1="406.6" y1="32.3" x2="409.6" y2="32.3"/>
			</g>
		</g>
		<g class="st2">
			<g>
				<line class="st3" x1="-79.7" y1="107.9" x2="-76.7" y2="107.9"/>
				<line class="st4" x1="-70.8" y1="107.9" x2="772.9" y2="107.9"/>
				<line class="st3" x1="775.9" y1="107.9" x2="778.9" y2="107.9"/>
			</g>
		</g>
		<g class="st2">
			<g>
				<line class="st3" x1="-79.7" y1="188.4" x2="-76.7" y2="188.4"/>
				<line class="st4" x1="-70.8" y1="188.4" x2="772.9" y2="188.4"/>
				<line class="st3" x1="775.9" y1="188.4" x2="778.9" y2="188.4"/>
			</g>
		</g>
		<g class="st2">
			<g>
				<line class="st3" x1="-79.7" y1="-53" x2="-76.7" y2="-53"/>
				<line class="st4" x1="-70.8" y1="-53" x2="772.9" y2="-53"/>
				<line class="st3" x1="775.9" y1="-53" x2="778.9" y2="-53"/>
			</g>
		</g>
		<g class="st2">
			<g>
				<line class="st3" x1="602" y1="-52.5" x2="602" y2="-49.5"/>
				<line class="st6" x1="602" y1="-43.5" x2="602" y2="183.8"/>
				<line class="st3" x1="602" y1="186.8" x2="602" y2="189.8"/>
			</g>
		</g>
		<g class="st2">
			<g>
				<line class="st3" x1="683.1" y1="-52.5" x2="683.1" y2="-49.5"/>
				<line class="st6" x1="683.1" y1="-43.5" x2="683.1" y2="183.8"/>
				<line class="st3" x1="683.1" y1="186.8" x2="683.1" y2="189.8"/>
			</g>
		</g>
		<g class="st2">
			<g>
				<line class="st3" x1="642.2" y1="-52.5" x2="642.2" y2="-49.5"/>
				<line class="st7" x1="642.2" y1="-43.3" x2="642.2" y2="103"/>
				<line class="st3" x1="642.2" y1="106.2" x2="642.2" y2="109.2"/>
			</g>
		</g>
		<g class="st2">
			<g>
				<line class="st3" x1="0" y1="-52.5" x2="0" y2="-49.5"/>
				<line class="st6" x1="0" y1="-43.5" x2="0" y2="183.8"/>
				<line class="st3" x1="0" y1="186.8" x2="0" y2="189.8"/>
			</g>
		</g>
		<rect x="602" y="108.2" class="st1" width="80.5" height="80.5"/>
		
			<text transform="matrix(1 0 0 1 635.5 153.4503)" style="display:inline;fill:#4D525A; font-family:'OpenSans-Light'; font-size:24px;">x</text>
		
			<text transform="matrix(1 0 0 1 -46.5 153.4503)" style="display:inline;fill:#4D525A; font-family:'OpenSans-Light'; font-size:24px;">x</text>
		
			<text transform="matrix(1 0 0 1 609.3333 -27.7163)" style="display:inline;fill:#4D525A; font-family:'OpenSans-Light'; font-size:12px;">1/2 x</text>
	</g>
	<g>
		<polygon class="st9" points="112.8,107.9 28.2,132 11.7,80.3 0,10.4 80.3,0 121.6,32.4 		"/>
		<g>
			<polygon class="st10" points="13.5,28.1 63.8,20.7 81.9,39.5 111.5,34.2 78.2,8 8.9,17.1 			"/>
			<polygon class="st10" points="25.1,85.1 29.7,98.4 55.4,92 49.1,79.6 			"/>
			<polygon class="st10" points="64.5,41 16.9,49.4 21.6,61.9 47.2,56.9 53.8,68.4 81.6,62.4 			"/>
		</g>
	</g>
	<g>
		<path class="st11" d="M190.4,48.6c-7.2-4.2-14.7-6.5-20.9-6.5c-6,0-8.9,2.6-8.9,6.3c0,4.1,2.2,6.1,12.2,9.9
			c17.5,6.4,24.3,12.5,24.3,25.3c0,17.5-12.8,25.2-28.6,25.2c-10.4,0-19.2-2.2-27.1-5.7l2.1-17.4c8.2,4.4,17.4,7.5,25.4,7.5
			c5.7,0,9.6-2.4,9.6-7.2c0-4.5-2.3-6.6-13.6-11c-16-6.2-23-11.4-23-24.7c0-15.5,12.1-23.8,27.4-23.8c9.9,0,16.5,1.8,23.1,4.9
			L190.4,48.6z"/>
		<path class="st11" d="M309.5,102.6c-6.1,4-13.7,6.4-22.6,6.4c-17,0-29.2-9.2-29.2-29.5c0-18.7,11.4-30,26.8-30
			c17.5,0,25.2,13.1,25.2,29.6c0,1.7-0.1,3.6-0.2,4.5h-34.3c0.9,9.1,6.3,12.5,14,12.5c6.2,0,12.2-2.3,18.3-5.9L309.5,102.6z
			 M275,74.1h18c-0.6-8.6-3.6-13.1-8.9-13.1C279.1,61,275.6,65.3,275,74.1z"/>
		<path class="st11" d="M351.7,107.5c-2.8,0.8-5.4,1.2-10.1,1.2c-12.2,0-20.6-4.4-20.6-19V65.1h-6.3l-2.4-14.3h8.7V32.3l17.4-5v23.4
			H349l2.4,14.3h-13v21.8c0,4.5,2.3,6.8,7,6.8c1.4,0,2.8-0.2,4-0.5L351.7,107.5z"/>
		<path class="st11" d="M398.4,69.2c-4.4-2.9-8.2-4.2-12.9-4.2c-7.1,0-12.2,4.8-12.2,14.3c0,9.8,5.7,14.5,12.9,14.5
			c4.1,0,7.8-1.1,12.6-4.1l2.4,14.2c-5.7,3.5-11.2,5.1-18.1,5.1c-16.2,0-27.4-10.7-27.4-29.2c0-20.2,12.6-30,28.1-30
			c6.5,0,11.8,1.5,16.4,4L398.4,69.2z"/>
		<path class="st11" d="M442.5,107.9V72.1c0-4.1-1.6-6.9-5.8-6.9c-3.4,0-6.5,2-9.6,5.1v37.6h-17.5V32.4l17.5-5v30.5
			c4.8-4.7,10-8.3,16.9-8.3c10.5,0,16.1,6.5,16.1,17.7v40.6H442.5z"/>
		<path class="st11" d="M504.3,109.2c-19.6,0-33.3-10.6-33.3-33.1V27.4l19.9,0v48.5c0,10.4,4.6,16.4,13.6,16.4
			c9,0,13.6-5.9,13.6-16.2V27.4H538v48.5C538,98.3,523.6,109.2,504.3,109.2z"/>
		<path class="st11" d="M578,108.5c-5.1,0-8.7-0.9-11.9-2v19.7l-17.5,5V50.7h15.3l1.2,7.5c3.9-4.3,9-8.6,16.3-8.6
			c11.7,0,20.5,8.9,20.5,28.2C602,99.5,590.5,108.5,578,108.5z M575.8,65.3c-3.8,0-6.7,2.3-9.7,5.8v21.7c2.4,1.2,4.5,1.7,8,1.7
			c5.9,0,10.3-4.5,10.3-15.6C584.4,69.4,580.8,65.3,575.8,65.3z"/>
		<g>
			<polygon class="st11" points="239.1,76.7 257,50.7 238.1,50.7 223,74.2 223,27.4 205.4,32.4 205.4,107.9 223,107.9 223,81.3 
				240.7,111 257.6,106.1 			"/>
		</g>
	</g>
	<text transform="matrix(1 0 0 1 630.4998 108.2435)" class="st12 st13 st14 st15">Pro</text>
	<text transform="matrix(1 0 0 1 788.9998 108.2435)" class="st12 st13 st14 st15">2016</text>
</g>
<g id="Layer_2">
	<g>
		<path class="st11" d="M659.6,73.9h-10.1v34.3h-8.1V26.8h20.1c16.6,0,26.8,8.3,26.8,22.9C688.2,65.8,676.3,73.9,659.6,73.9z
			 M660.9,34h-11.4v32.7H660c12.4,0,19.9-5.4,19.9-16.8C679.9,39.5,673.3,34,660.9,34z"/>
		<path class="st11" d="M703,73.2v35h-7.8V52.4h5.8l1.8,11.4c4.1-6.3,10.6-12.4,19.8-12.6l1.3,7.3C714.6,59.2,706.7,65.8,703,73.2z"
			/>
		<path class="st11" d="M749.3,109.4c-14.3,0-25-10.6-25-29c0-18.5,11-29.1,25-29.1c14.5,0,25.4,10.6,25.4,29.1
			C774.7,98.8,763.6,109.4,749.3,109.4z M749.3,57.9c-10.4,0-17.1,8.5-17.1,22.5c0,13.6,7,22.4,17.1,22.4c10.5,0,17.3-8.5,17.3-22.4
			C766.7,66.7,759.8,57.9,749.3,57.9z"/>
	</g>
	<g>
		<path class="st11" d="M794.9,108.2v-5.8l29.4-31.3c8.5-9.1,11.4-14.6,11.4-22.1c0-9.6-5.9-15.1-15.8-15.1
			c-8.3,0-15.5,4.1-21.7,9.6l-1.2-7.8c5.9-5,13.6-8.8,23.4-8.8c14.8,0,23.5,8.6,23.5,21.7c0,9.8-4,16.6-13.8,26.9l-24.5,25.7h38.6
			l1.1,7H794.9z"/>
		<path class="st11" d="M882.6,109.8c-18.1,0-29.3-16-29.3-41.3c0-25.4,11.3-41.5,29.3-41.5c18.1,0,29.3,16,29.3,41.3
			C911.8,93.6,900.5,109.8,882.6,109.8z M882.6,33.9c-13.7,0-21.2,13.6-21.2,34.5c0,20.9,7.6,34.5,21.2,34.5s21.2-13.6,21.2-34.5
			C903.8,47.5,896.3,33.9,882.6,33.9z"/>
		<path class="st11" d="M934.1,108.2V36.6L917,43.5l-1.1-6.4l19.6-9h6.4v80.1H934.1z"/>
		<path class="st11" d="M964,67.4c6.5-4.5,13.6-7.2,21.6-7.2c14.8,0,24.3,9.2,24.3,23.8c0,15.3-11.2,25.7-26.1,25.7
			c-16.3,0-28.1-12.7-28.1-33.9c0-27,16.6-42.1,41.5-49.1l1.1,7.2C979.6,39.2,966.8,49.5,964,67.4z M963.5,75.1v0.5
			c0,16.2,8.3,27.4,20.4,27.4c10.9,0,17.9-7.3,17.9-18.5c0-10.3-5.8-17.3-17.6-17.3C976.5,67.1,969.7,70.2,963.5,75.1z"/>
	</g>
</g>
</svg>
