<?xml version="1.0" encoding="utf-8"?>
<!-- Generator: Adobe Illustrator 19.1.0, SVG Export Plug-In . SVG Version: 6.00 Build 0)  -->
<svg version="1.1" id="Layer_1" xmlns="http://www.w3.org/2000/svg" xmlns:xlink="http://www.w3.org/1999/xlink" x="0px" y="0px"
	 viewBox="199 331 1025 132" style="enable-background:new 199 331 1025 132;" xml:space="preserve">
<style type="text/css">
	.st0{fill:#E82C2E;}
	.st1{fill:#FFFFFF;}
	.st2{enable-background:new    ;}
</style>
<g>
	<polygon class="st0" points="311.8,438.9 227.2,463 210.7,411.3 199,341.4 279.3,331 320.6,363.4 	"/>
	<g>
		<polygon class="st1" points="212.5,359.1 262.8,351.7 280.9,370.5 310.5,365.2 277.2,339 207.9,348.1 		"/>
		<polygon class="st1" points="224.1,416.1 228.7,429.4 254.4,423 248.1,410.6 		"/>
		<polygon class="st1" points="263.5,372 215.9,380.4 220.6,392.9 246.2,387.9 252.8,399.4 280.6,393.4 		"/>
	</g>
</g>
<g>
	<path class="st1" d="M389.4,379.6c-7.2-4.2-14.7-6.5-20.9-6.5c-6,0-8.9,2.6-8.9,6.3c0,4.1,2.2,6.1,12.2,9.9
		c17.5,6.4,24.3,12.5,24.3,25.3c0,17.5-12.8,25.2-28.6,25.2c-10.4,0-19.2-2.2-27.1-5.7l2.1-17.4c8.2,4.4,17.4,7.5,25.4,7.5
		c5.7,0,9.6-2.4,9.6-7.2c0-4.5-2.3-6.6-13.6-11c-16-6.2-23-11.4-23-24.7c0-15.5,12.1-23.8,27.4-23.8c9.9,0,16.5,1.8,23.1,4.9
		L389.4,379.6z"/>
	<path class="st1" d="M508.5,433.6c-6.1,4-13.7,6.4-22.6,6.4c-17,0-29.2-9.2-29.2-29.5c0-18.7,11.4-30,26.8-30
		c17.5,0,25.2,13.1,25.2,29.6c0,1.7-0.1,3.6-0.2,4.5h-34.3c0.9,9.1,6.3,12.5,14,12.5c6.2,0,12.2-2.3,18.3-5.9L508.5,433.6z
		 M474,405.1h18c-0.6-8.6-3.6-13.1-8.9-13.1C478.1,392,474.6,396.3,474,405.1z"/>
	<path class="st1" d="M550.7,438.5c-2.8,0.8-5.4,1.2-10.1,1.2c-12.2,0-20.6-4.4-20.6-19v-24.6h-6.3l-2.4-14.3h8.7v-18.5l17.4-5v23.4
		H548l2.4,14.3h-13v21.8c0,4.5,2.3,6.8,7,6.8c1.4,0,2.8-0.2,4-0.5L550.7,438.5z"/>
	<path class="st1" d="M597.4,400.2c-4.4-2.9-8.2-4.2-12.9-4.2c-7.1,0-12.2,4.8-12.2,14.3c0,9.8,5.7,14.5,12.9,14.5
		c4.1,0,7.8-1.1,12.6-4.1l2.4,14.2c-5.7,3.5-11.2,5.1-18.1,5.1c-16.2,0-27.4-10.7-27.4-29.2c0-20.2,12.6-30,28.1-30
		c6.5,0,11.8,1.5,16.4,4L597.4,400.2z"/>
	<path class="st1" d="M641.5,438.9v-35.8c0-4.1-1.6-6.9-5.8-6.9c-3.4,0-6.5,2-9.6,5.1v37.6h-17.5v-75.5l17.5-5v30.5
		c4.8-4.7,10-8.3,16.9-8.3c10.5,0,16.1,6.5,16.1,17.7v40.6H641.5z"/>
	<path class="st1" d="M703.3,440.2c-19.6,0-33.3-10.6-33.3-33.1v-48.7h19.9v48.5c0,10.4,4.6,16.4,13.6,16.4s13.6-5.9,13.6-16.2
		v-48.7H737v48.5C737,429.3,722.6,440.2,703.3,440.2z"/>
	<path class="st1" d="M777,439.5c-5.1,0-8.7-0.9-11.9-2v19.7l-17.5,5v-80.5h15.3l1.2,7.5c3.9-4.3,9-8.6,16.3-8.6
		c11.7,0,20.5,8.9,20.5,28.2C801,430.5,789.5,439.5,777,439.5z M774.8,396.3c-3.8,0-6.7,2.3-9.7,5.8v21.7c2.4,1.2,4.5,1.7,8,1.7
		c5.9,0,10.3-4.5,10.3-15.6C783.4,400.4,779.8,396.3,774.8,396.3z"/>
	<g>
		<polygon class="st1" points="438.1,407.7 456,381.7 437.1,381.7 422,405.2 422,358.4 404.4,363.4 404.4,438.9 422,438.9 
			422,412.3 439.7,442 456.6,437.1 		"/>
	</g>
</g>
<g class="st2">
	<path class="st1" d="M858.6,404.9h-10.1v34.3h-8.1v-81.4h20.1c16.6,0,26.8,8.3,26.8,22.9C887.2,396.8,875.3,404.9,858.6,404.9z
		 M859.9,365h-11.4v32.7H859c12.4,0,19.9-5.4,19.9-16.8C878.9,370.5,872.3,365,859.9,365z"/>
	<path class="st1" d="M927.2,439.2l-1.3-7.4c-5.2,4.8-11.7,8.6-19.7,8.6c-9.7,0-16.6-5.3-16.6-15.2c0-13.1,10.6-19.2,35.9-21.7v-3.7
		c0-7.6-4.5-10.7-11.6-10.7c-6.6,0-13.1,2-19.2,5l-1.1-7c6.5-2.8,12.9-4.8,20.8-4.8c12.4,0,18.8,5.8,18.8,17.2v39.8H927.2z
		 M925.4,409.6c-21.9,2.2-28.1,7.6-28.1,15.1c0,6,4.1,9.1,10,9.1c6,0,12.6-3.3,18.1-8.4V409.6z"/>
	<path class="st1" d="M953.6,404.2v35h-7.8v-55.8h5.8l1.8,11.4c4.1-6.3,10.6-12.4,19.8-12.6l1.3,7.3
		C965.3,390.2,957.4,396.8,953.6,404.2z"/>
	<path class="st1" d="M999.8,440.2c-8.7,0-14.5-3.4-14.5-13.7V390h-8.6v-6.6h8.6v-19.4l7.7-1.3v20.6h12.9l1.1,6.6h-13.9v35.2
		c0,5.7,2.2,8.1,8.3,8.1c1.8,0,3.9-0.4,5.2-0.6l1.2,6.5C1005.9,439.7,1003.1,440.2,999.8,440.2z"/>
	<path class="st1" d="M1052.8,439.2v-38.5c0-7.2-3.3-11.6-10.4-11.6c-5.9,0-11.9,3.7-18.1,9.7v40.4h-7.8v-55.8h6l1.3,8.3
		c6.1-5.4,12.5-9.4,20.1-9.4c11.1,0,16.6,6.4,16.6,17.1v39.9H1052.8z"/>
	<path class="st1" d="M1095,440.4c-14.6,0-25.1-9.9-25.1-29.1c0-17.9,10.1-29,24-29c15.1,0,22.7,12.5,22.7,28v1.7h-38.8
		c0.2,13.8,6.6,21.8,17.8,21.8c7.4,0,13.9-3.3,19.7-8.3l1.2,7.1C1110.8,437.2,1103.6,440.4,1095,440.4z M1077.9,405.7h30.6
		c-0.7-10-5.7-17.2-14.7-17.2C1085.6,388.5,1079.4,394.5,1077.9,405.7z"/>
	<path class="st1" d="M1134.1,404.2v35h-7.8v-55.8h5.8l1.8,11.4c4.1-6.3,10.6-12.4,19.8-12.6l1.3,7.3
		C1145.7,390.2,1137.8,396.8,1134.1,404.2z"/>
	<path class="st1" d="M1177.1,440.3c-7.4,0-15.2-2.4-20.1-5.1l1.3-7.6c5.2,3.3,12,6,19.5,6c7.8,0,12.6-3.3,12.6-9
		c0-5.5-3.3-8-14.4-11c-12.4-3.2-17.7-7.2-17.7-16.4c0-8.7,7.4-15.1,19-15.1c6.6,0,12.4,1.5,17.3,3.8l-1.3,7.4
		c-5.1-2.7-10.7-4.4-16.3-4.4c-7.7,0-11.3,3.3-11.3,7.9c0,4.6,3.1,7,12.5,9.4c13.2,3.5,19.6,7.8,19.6,17.7
		C1197.9,434.3,1190,440.3,1177.1,440.3z"/>
</g>
</svg>
