<?xml version="1.0" encoding="utf-8"?>
<!-- Generator: Adobe Illustrator 19.1.0, SVG Export Plug-In . SVG Version: 6.00 Build 0)  -->
<svg version="1.1" id="Layer_1" xmlns="http://www.w3.org/2000/svg" xmlns:xlink="http://www.w3.org/1999/xlink" x="0px" y="0px"
	 viewBox="0 0 602 132" style="enable-background:new 0 0 602 132;" xml:space="preserve">
<style type="text/css">
	.st0{fill:#E82C2E;}
	.st1{fill:#FFFFFF;}
</style>
<g>
	<g>
		<polygon class="st0" points="112.8,107.9 28.2,132 11.7,80.3 0,10.4 80.3,0 121.6,32.4 		"/>
		<g>
			<polygon class="st1" points="13.5,28.1 63.8,20.7 81.9,39.5 111.5,34.2 78.2,8 8.9,17.1 			"/>
			<polygon class="st1" points="25.1,85.1 29.7,98.4 55.4,92 49.1,79.6 			"/>
			<polygon class="st1" points="64.5,41 16.9,49.4 21.6,61.9 47.2,56.9 53.8,68.4 81.6,62.4 			"/>
		</g>
	</g>
	<g>
		<path class="st1" d="M190.4,48.6c-7.2-4.2-14.7-6.5-20.9-6.5c-6,0-8.9,2.6-8.9,6.3c0,4.1,2.2,6.1,12.2,9.9
			c17.5,6.4,24.3,12.5,24.3,25.3c0,17.5-12.8,25.2-28.6,25.2c-10.4,0-19.2-2.2-27.1-5.7l2.1-17.4c8.2,4.4,17.4,7.5,25.4,7.5
			c5.7,0,9.6-2.4,9.6-7.2c0-4.5-2.3-6.6-13.6-11c-16-6.2-23-11.4-23-24.7c0-15.5,12.1-23.8,27.4-23.8c9.9,0,16.5,1.8,23.1,4.9
			L190.4,48.6z"/>
		<path class="st1" d="M309.5,102.6c-6.1,4-13.7,6.4-22.6,6.4c-17,0-29.2-9.2-29.2-29.5c0-18.7,11.4-30,26.8-30
			c17.5,0,25.2,13.1,25.2,29.6c0,1.7-0.1,3.6-0.2,4.5h-34.3c0.9,9.1,6.3,12.5,14,12.5c6.2,0,12.2-2.3,18.3-5.9L309.5,102.6z
			 M275,74.1h18c-0.6-8.6-3.6-13.1-8.9-13.1C279.1,61,275.6,65.3,275,74.1z"/>
		<path class="st1" d="M351.7,107.5c-2.8,0.8-5.4,1.2-10.1,1.2c-12.2,0-20.6-4.4-20.6-19V65.1h-6.3l-2.4-14.3h8.7V32.3l17.4-5v23.4
			H349l2.4,14.3h-13v21.8c0,4.5,2.3,6.8,7,6.8c1.4,0,2.8-0.2,4-0.5L351.7,107.5z"/>
		<path class="st1" d="M398.4,69.2c-4.4-2.9-8.2-4.2-12.9-4.2c-7.1,0-12.2,4.8-12.2,14.3c0,9.8,5.7,14.5,12.9,14.5
			c4.1,0,7.8-1.1,12.6-4.1l2.4,14.2c-5.7,3.5-11.2,5.1-18.1,5.1c-16.2,0-27.4-10.7-27.4-29.2c0-20.2,12.6-30,28.1-30
			c6.5,0,11.8,1.5,16.4,4L398.4,69.2z"/>
		<path class="st1" d="M442.5,107.9V72.1c0-4.1-1.6-6.9-5.8-6.9c-3.4,0-6.5,2-9.6,5.1v37.6h-17.5V32.4l17.5-5v30.5
			c4.8-4.7,10-8.3,16.9-8.3c10.5,0,16.1,6.5,16.1,17.7v40.6H442.5z"/>
		<path class="st1" d="M504.3,109.2c-19.6,0-33.3-10.6-33.3-33.1V27.4l19.9,0v48.5c0,10.4,4.6,16.4,13.6,16.4
			c9,0,13.6-5.9,13.6-16.2V27.4H538v48.5C538,98.3,523.6,109.2,504.3,109.2z"/>
		<path class="st1" d="M578,108.5c-5.1,0-8.7-0.9-11.9-2v19.7l-17.5,5V50.7h15.3l1.2,7.5c3.9-4.3,9-8.6,16.3-8.6
			c11.7,0,20.5,8.9,20.5,28.2C602,99.5,590.5,108.5,578,108.5z M575.8,65.3c-3.8,0-6.7,2.3-9.7,5.8v21.7c2.4,1.2,4.5,1.7,8,1.7
			c5.9,0,10.3-4.5,10.3-15.6C584.4,69.4,580.8,65.3,575.8,65.3z"/>
		<g>
			<polygon class="st1" points="239.1,76.7 257,50.7 238.1,50.7 223,74.2 223,27.4 205.4,32.4 205.4,107.9 223,107.9 223,81.3 
				240.7,111 257.6,106.1 			"/>
		</g>
	</g>
</g>
</svg>
